<svg width="19" height="18" viewBox="0 0 19 18" fill="none" xmlns="http://www.w3.org/2000/svg">
<g clip-path="url(#clip0_578_1227)">
<path d="M15.8047 15.75L12.4402 12.3795L15.8047 15.75ZM14.3047 7.875C14.3047 9.56576 13.633 11.1873 12.4375 12.3828C11.2419 13.5784 9.62044 14.25 7.92969 14.25C6.23893 14.25 4.61743 13.5784 3.42188 12.3828C2.22634 11.1873 1.55469 9.56576 1.55469 7.875C1.55469 6.18424 2.22634 4.56274 3.42188 3.36719C4.61743 2.17165 6.23893 1.5 7.92969 1.5C9.62044 1.5 11.2419 2.17165 12.4375 3.36719C13.633 4.56274 14.3047 6.18424 14.3047 7.875V7.875Z" stroke="black" stroke-width="2" stroke-linecap="round"/>
</g>
<defs>
<clipPath id="clip0_578_1227">
<rect width="18" height="18" fill="white" transform="translate(0.0546875)"/>
</clipPath>
</defs>
</svg>
